<mxfile host="Electron" modified="2024-10-10T15:22:12.033Z" agent="Mozilla/5.0 (Windows NT 10.0; Win64; x64) AppleWebKit/537.36 (KHTML, like Gecko) draw.io/24.2.5 Chrome/120.0.6099.109 Electron/28.1.0 Safari/537.36" etag="y8B2Oska_uZHYbfwD0Gy" version="24.2.5" type="device">
  <diagram name="Задание 6. CDN" id="KJF2FHM4Iy227K-hH0AW">
    <mxGraphModel dx="4148" dy="1241" grid="1" gridSize="10" guides="1" tooltips="1" connect="1" arrows="1" fold="1" page="1" pageScale="1" pageWidth="827" pageHeight="1169" math="0" shadow="0">
      <root>
        <mxCell id="0" />
        <mxCell id="1" parent="0" />
        <mxCell id="erF_tCyvvEDUomRim_DL-97" style="edgeStyle=orthogonalEdgeStyle;rounded=0;orthogonalLoop=1;jettySize=auto;html=1;exitX=1;exitY=0.25;exitDx=0;exitDy=0;entryX=0;entryY=0.25;entryDx=0;entryDy=0;fillColor=#0050ef;strokeColor=#001DBC;" parent="1" source="erF_tCyvvEDUomRim_DL-92" target="erF_tCyvvEDUomRim_DL-95" edge="1">
          <mxGeometry relative="1" as="geometry" />
        </mxCell>
        <mxCell id="erF_tCyvvEDUomRim_DL-98" style="edgeStyle=orthogonalEdgeStyle;rounded=0;orthogonalLoop=1;jettySize=auto;html=1;exitX=1;exitY=0.75;exitDx=0;exitDy=0;fillColor=#008a00;strokeColor=#005700;" parent="1" source="erF_tCyvvEDUomRim_DL-92" target="erF_tCyvvEDUomRim_DL-96" edge="1">
          <mxGeometry relative="1" as="geometry" />
        </mxCell>
        <mxCell id="8hpsgEoPrptNPxrvnO7z-44" style="edgeStyle=orthogonalEdgeStyle;rounded=0;orthogonalLoop=1;jettySize=auto;html=1;exitX=0.5;exitY=1;exitDx=0;exitDy=0;entryX=0.5;entryY=0;entryDx=0;entryDy=0;" parent="1" source="erF_tCyvvEDUomRim_DL-92" target="8hpsgEoPrptNPxrvnO7z-6" edge="1">
          <mxGeometry relative="1" as="geometry" />
        </mxCell>
        <mxCell id="erF_tCyvvEDUomRim_DL-92" value="&lt;font style=&quot;font-size: 16px;&quot;&gt;&lt;b&gt;Сайт&lt;/b&gt;&lt;/font&gt;&lt;div style=&quot;font-size: 16px;&quot;&gt;&lt;font style=&quot;font-size: 16px;&quot;&gt;&lt;b&gt;React/NGINX&lt;/b&gt;&lt;/font&gt;&lt;/div&gt;" style="rounded=1;whiteSpace=wrap;html=1;fillColor=#fff2cc;strokeColor=#d6b656;" parent="1" vertex="1">
          <mxGeometry x="530" y="1433" width="120" height="60" as="geometry" />
        </mxCell>
        <mxCell id="erF_tCyvvEDUomRim_DL-93" style="edgeStyle=orthogonalEdgeStyle;rounded=0;orthogonalLoop=1;jettySize=auto;html=1;entryX=0;entryY=0.25;entryDx=0;entryDy=0;" parent="1" target="erF_tCyvvEDUomRim_DL-92" edge="1">
          <mxGeometry relative="1" as="geometry">
            <mxPoint x="80" y="1413" as="sourcePoint" />
          </mxGeometry>
        </mxCell>
        <mxCell id="erF_tCyvvEDUomRim_DL-94" value="&lt;font color=&quot;#0000ff&quot;&gt;Actor-geo-1&lt;/font&gt;" style="shape=umlActor;verticalLabelPosition=bottom;verticalAlign=top;html=1;outlineConnect=0;fillColor=#0050ef;fontColor=#ffffff;strokeColor=#001DBC;" parent="1" vertex="1">
          <mxGeometry x="40" y="1373" width="40" height="80" as="geometry" />
        </mxCell>
        <mxCell id="erF_tCyvvEDUomRim_DL-95" value="CDN-geo-1" style="rounded=1;whiteSpace=wrap;html=1;fillColor=#dae8fc;gradientColor=#7ea6e0;strokeColor=#6c8ebf;" parent="1" vertex="1">
          <mxGeometry x="834.25" y="1343" width="120" height="60" as="geometry" />
        </mxCell>
        <mxCell id="erF_tCyvvEDUomRim_DL-96" value="CDN-geo-2" style="rounded=1;whiteSpace=wrap;html=1;fillColor=#d5e8d4;gradientColor=#97d077;strokeColor=#82b366;" parent="1" vertex="1">
          <mxGeometry x="1000" y="1343" width="120" height="60" as="geometry" />
        </mxCell>
        <mxCell id="erF_tCyvvEDUomRim_DL-99" value="&lt;font color=&quot;#006600&quot;&gt;Actor-geo-2&lt;/font&gt;" style="shape=umlActor;verticalLabelPosition=bottom;verticalAlign=top;html=1;outlineConnect=0;fillColor=#008a00;fontColor=#ffffff;strokeColor=#005700;" parent="1" vertex="1">
          <mxGeometry x="40" y="1513" width="40" height="80" as="geometry" />
        </mxCell>
        <mxCell id="erF_tCyvvEDUomRim_DL-102" style="edgeStyle=orthogonalEdgeStyle;rounded=0;orthogonalLoop=1;jettySize=auto;html=1;entryX=0.008;entryY=0.889;entryDx=0;entryDy=0;entryPerimeter=0;" parent="1" source="erF_tCyvvEDUomRim_DL-99" target="erF_tCyvvEDUomRim_DL-92" edge="1">
          <mxGeometry relative="1" as="geometry" />
        </mxCell>
        <mxCell id="erF_tCyvvEDUomRim_DL-106" value="" style="endArrow=none;dashed=1;html=1;dashPattern=1 3;strokeWidth=2;rounded=0;" parent="1" edge="1">
          <mxGeometry width="50" height="50" relative="1" as="geometry">
            <mxPoint x="140" y="2743" as="sourcePoint" />
            <mxPoint x="140" y="1348" as="targetPoint" />
          </mxGeometry>
        </mxCell>
        <mxCell id="8hpsgEoPrptNPxrvnO7z-3" value="consul" style="rounded=1;whiteSpace=wrap;html=1;fillColor=#cdeb8b;strokeColor=#36393d;" parent="1" vertex="1">
          <mxGeometry x="429" y="1655" width="120" height="60" as="geometry" />
        </mxCell>
        <mxCell id="8hpsgEoPrptNPxrvnO7z-6" value="&lt;span style=&quot;font-family: &amp;quot;YS Text&amp;quot;, Arial, Helvetica, sans-serif; font-size: 18px; text-align: start; white-space-collapse: preserve;&quot;&gt;APISIX Gateway&lt;/span&gt;" style="rounded=1;whiteSpace=wrap;html=1;fillColor=#ffcccc;strokeColor=#36393d;" parent="1" vertex="1">
          <mxGeometry x="851.5" y="1630" width="130" height="110" as="geometry" />
        </mxCell>
        <mxCell id="8hpsgEoPrptNPxrvnO7z-7" style="edgeStyle=orthogonalEdgeStyle;rounded=0;orthogonalLoop=1;jettySize=auto;html=1;exitX=0;exitY=0.5;exitDx=0;exitDy=0;entryX=1;entryY=0.5;entryDx=0;entryDy=0;" parent="1" source="8hpsgEoPrptNPxrvnO7z-8" target="8hpsgEoPrptNPxrvnO7z-3" edge="1">
          <mxGeometry relative="1" as="geometry" />
        </mxCell>
        <mxCell id="8hpsgEoPrptNPxrvnO7z-8" value="consul_kv" style="rounded=1;whiteSpace=wrap;html=1;fillColor=#ffcccc;strokeColor=#36393d;strokeWidth=2;" parent="1" vertex="1">
          <mxGeometry x="766.5" y="1665" width="100" height="40" as="geometry" />
        </mxCell>
        <mxCell id="8hpsgEoPrptNPxrvnO7z-46" style="edgeStyle=orthogonalEdgeStyle;rounded=0;orthogonalLoop=1;jettySize=auto;html=1;exitX=0.5;exitY=1;exitDx=0;exitDy=0;exitPerimeter=0;entryX=0.5;entryY=0;entryDx=0;entryDy=0;fillColor=#6a00ff;strokeColor=#3700CC;" parent="1" source="8hpsgEoPrptNPxrvnO7z-45" target="erF_tCyvvEDUomRim_DL-95" edge="1">
          <mxGeometry relative="1" as="geometry" />
        </mxCell>
        <mxCell id="8hpsgEoPrptNPxrvnO7z-45" value="Geo specific data" style="shape=cylinder3;whiteSpace=wrap;html=1;boundedLbl=1;backgroundOutline=1;size=15;" parent="1" vertex="1">
          <mxGeometry x="948" y="1193" width="60" height="80" as="geometry" />
        </mxCell>
        <mxCell id="8hpsgEoPrptNPxrvnO7z-47" style="edgeStyle=orthogonalEdgeStyle;rounded=0;orthogonalLoop=1;jettySize=auto;html=1;exitX=0.5;exitY=1;exitDx=0;exitDy=0;exitPerimeter=0;entryX=0.565;entryY=0.024;entryDx=0;entryDy=0;entryPerimeter=0;fillColor=#008a00;strokeColor=#005700;" parent="1" source="8hpsgEoPrptNPxrvnO7z-45" target="erF_tCyvvEDUomRim_DL-96" edge="1">
          <mxGeometry relative="1" as="geometry" />
        </mxCell>
        <mxCell id="zAv0b-ze88hExYa7rtgp-24" style="edgeStyle=orthogonalEdgeStyle;rounded=0;orthogonalLoop=1;jettySize=auto;html=1;exitX=0;exitY=0.5;exitDx=0;exitDy=0;entryX=0.161;entryY=1.006;entryDx=0;entryDy=0;entryPerimeter=0;fillColor=#008a00;strokeColor=#005700;dashed=1;" edge="1" parent="1" source="zAv0b-ze88hExYa7rtgp-79">
          <mxGeometry relative="1" as="geometry">
            <mxPoint x="454" y="1713" as="targetPoint" />
          </mxGeometry>
        </mxCell>
        <mxCell id="zAv0b-ze88hExYa7rtgp-25" style="edgeStyle=orthogonalEdgeStyle;rounded=0;orthogonalLoop=1;jettySize=auto;html=1;exitX=0;exitY=0.5;exitDx=0;exitDy=0;entryX=0.75;entryY=1;entryDx=0;entryDy=0;fillColor=#008a00;strokeColor=#005700;dashed=1;" edge="1" parent="1" source="zAv0b-ze88hExYa7rtgp-60">
          <mxGeometry relative="1" as="geometry">
            <mxPoint x="525" y="1713" as="targetPoint" />
          </mxGeometry>
        </mxCell>
        <mxCell id="zAv0b-ze88hExYa7rtgp-26" style="edgeStyle=orthogonalEdgeStyle;rounded=0;orthogonalLoop=1;jettySize=auto;html=1;exitX=0.5;exitY=1;exitDx=0;exitDy=0;entryX=0.5;entryY=0;entryDx=0;entryDy=0;" edge="1" parent="1" target="zAv0b-ze88hExYa7rtgp-57">
          <mxGeometry relative="1" as="geometry">
            <mxPoint x="923" y="1738" as="sourcePoint" />
          </mxGeometry>
        </mxCell>
        <mxCell id="zAv0b-ze88hExYa7rtgp-27" style="edgeStyle=orthogonalEdgeStyle;rounded=0;orthogonalLoop=1;jettySize=auto;html=1;exitX=0.5;exitY=1;exitDx=0;exitDy=0;entryX=0.5;entryY=0;entryDx=0;entryDy=0;" edge="1" parent="1" target="zAv0b-ze88hExYa7rtgp-60">
          <mxGeometry relative="1" as="geometry">
            <mxPoint x="923" y="1738" as="sourcePoint" />
          </mxGeometry>
        </mxCell>
        <mxCell id="zAv0b-ze88hExYa7rtgp-28" style="edgeStyle=orthogonalEdgeStyle;rounded=0;orthogonalLoop=1;jettySize=auto;html=1;exitX=0.5;exitY=1;exitDx=0;exitDy=0;entryX=0.5;entryY=0;entryDx=0;entryDy=0;" edge="1" parent="1" target="zAv0b-ze88hExYa7rtgp-79">
          <mxGeometry relative="1" as="geometry">
            <mxPoint x="923" y="1738" as="sourcePoint" />
          </mxGeometry>
        </mxCell>
        <mxCell id="zAv0b-ze88hExYa7rtgp-29" value="" style="rounded=1;whiteSpace=wrap;html=1;dashed=1;" vertex="1" parent="1">
          <mxGeometry x="167" y="2173" width="840" height="350" as="geometry" />
        </mxCell>
        <mxCell id="zAv0b-ze88hExYa7rtgp-30" value="" style="whiteSpace=wrap;html=1;aspect=fixed;" vertex="1" parent="1">
          <mxGeometry x="703" y="2224" width="269" height="269" as="geometry" />
        </mxCell>
        <mxCell id="zAv0b-ze88hExYa7rtgp-31" value="" style="whiteSpace=wrap;html=1;aspect=fixed;" vertex="1" parent="1">
          <mxGeometry x="197" y="2223" width="269" height="269" as="geometry" />
        </mxCell>
        <mxCell id="zAv0b-ze88hExYa7rtgp-32" style="edgeStyle=orthogonalEdgeStyle;rounded=0;orthogonalLoop=1;jettySize=auto;html=1;exitX=1;exitY=0.5;exitDx=0;exitDy=0;fillColor=#d80073;strokeColor=#A50040;" edge="1" parent="1" source="zAv0b-ze88hExYa7rtgp-34" target="zAv0b-ze88hExYa7rtgp-35">
          <mxGeometry relative="1" as="geometry" />
        </mxCell>
        <mxCell id="zAv0b-ze88hExYa7rtgp-33" style="edgeStyle=orthogonalEdgeStyle;rounded=0;orthogonalLoop=1;jettySize=auto;html=1;exitX=0.5;exitY=1;exitDx=0;exitDy=0;entryX=0.5;entryY=0;entryDx=0;entryDy=0;" edge="1" parent="1" source="zAv0b-ze88hExYa7rtgp-34" target="zAv0b-ze88hExYa7rtgp-30">
          <mxGeometry relative="1" as="geometry" />
        </mxCell>
        <mxCell id="zAv0b-ze88hExYa7rtgp-34" value="&lt;span style=&quot;color: rgba(0, 0, 0, 0.85); font-family: Menlo, &amp;quot;Ubuntu Mono&amp;quot;, consolas, source-code-pro, monospace; font-size: 14px; text-align: start; white-space: pre; background-color: rgb(245, 245, 245);&quot;&gt;mongos_router&lt;/span&gt;" style="rounded=1;whiteSpace=wrap;html=1;fillColor=#e1d5e7;strokeColor=#9673a6;" vertex="1" parent="1">
          <mxGeometry x="307" y="1943" width="120" height="60" as="geometry" />
        </mxCell>
        <mxCell id="zAv0b-ze88hExYa7rtgp-35" value="&lt;span style=&quot;color: rgba(0, 0, 0, 0.85); font-family: Menlo, &amp;quot;Ubuntu Mono&amp;quot;, consolas, source-code-pro, monospace; font-size: 14px; text-align: start; white-space: pre; background-color: rgb(245, 245, 245);&quot;&gt;configSrv&lt;/span&gt;" style="rounded=1;whiteSpace=wrap;html=1;fillColor=#e1d5e7;strokeColor=#9673a6;" vertex="1" parent="1">
          <mxGeometry x="1057" y="1943" width="120" height="60" as="geometry" />
        </mxCell>
        <mxCell id="zAv0b-ze88hExYa7rtgp-36" value="&lt;br&gt;&lt;br style=&quot;forced-color-adjust: none; color: rgb(0, 0, 0); font-family: Helvetica; font-size: 12px; font-style: normal; font-variant-ligatures: normal; font-variant-caps: normal; font-weight: 400; letter-spacing: normal; orphans: 2; text-align: center; text-indent: 0px; text-transform: none; widows: 2; word-spacing: 0px; -webkit-text-stroke-width: 0px; white-space: normal; background-color: rgb(251, 251, 251); text-decoration-thickness: initial; text-decoration-style: initial; text-decoration-color: initial;&quot;&gt;&lt;span style=&quot;forced-color-adjust: none; color: rgb(0, 0, 0); font-family: Helvetica; font-size: 12px; font-style: normal; font-variant-ligatures: normal; font-variant-caps: normal; font-weight: 400; letter-spacing: normal; orphans: 2; text-align: center; text-indent: 0px; text-transform: none; widows: 2; word-spacing: 0px; -webkit-text-stroke-width: 0px; white-space: normal; text-decoration-thickness: initial; text-decoration-style: initial; text-decoration-color: initial; background-color: rgb(251, 251, 251); float: none; display: inline !important;&quot;&gt;MongoDB&amp;nbsp;&lt;span style=&quot;background-color: rgb(245, 245, 245); color: rgba(0, 0, 0, 0.85); font-family: Menlo, &amp;quot;Ubuntu Mono&amp;quot;, consolas, source-code-pro, monospace; font-size: 14px; text-align: start; white-space: pre;&quot;&gt;shard1&lt;/span&gt;&lt;br&gt;&lt;/span&gt;&lt;br style=&quot;forced-color-adjust: none; color: rgb(0, 0, 0); font-family: Helvetica; font-size: 12px; font-style: normal; font-variant-ligatures: normal; font-variant-caps: normal; font-weight: 400; letter-spacing: normal; orphans: 2; text-align: center; text-indent: 0px; text-transform: none; widows: 2; word-spacing: 0px; -webkit-text-stroke-width: 0px; white-space: normal; background-color: rgb(251, 251, 251); text-decoration-thickness: initial; text-decoration-style: initial; text-decoration-color: initial;&quot;&gt;&lt;div&gt;&lt;br/&gt;&lt;/div&gt;" style="text;html=1;align=center;verticalAlign=middle;whiteSpace=wrap;rounded=0;" vertex="1" parent="1">
          <mxGeometry x="227" y="2223" width="60" height="30" as="geometry" />
        </mxCell>
        <mxCell id="zAv0b-ze88hExYa7rtgp-37" style="edgeStyle=orthogonalEdgeStyle;rounded=0;orthogonalLoop=1;jettySize=auto;html=1;exitX=0.855;exitY=1;exitDx=0;exitDy=-4.35;exitPerimeter=0;" edge="1" parent="1" source="zAv0b-ze88hExYa7rtgp-39" target="zAv0b-ze88hExYa7rtgp-40">
          <mxGeometry relative="1" as="geometry" />
        </mxCell>
        <mxCell id="zAv0b-ze88hExYa7rtgp-38" value="Replica" style="edgeLabel;html=1;align=center;verticalAlign=middle;resizable=0;points=[];" vertex="1" connectable="0" parent="zAv0b-ze88hExYa7rtgp-37">
          <mxGeometry x="-0.2628" relative="1" as="geometry">
            <mxPoint as="offset" />
          </mxGeometry>
        </mxCell>
        <mxCell id="zAv0b-ze88hExYa7rtgp-39" value="MongoDB&lt;div style=&quot;text-align: start;&quot;&gt;&lt;font face=&quot;Menlo, Ubuntu Mono, consolas, source-code-pro, monospace&quot; color=&quot;rgba(0, 0, 0, 0.85)&quot;&gt;&lt;span style=&quot;font-size: 14px; white-space: pre; background-color: rgb(245, 245, 245);&quot;&gt;master&lt;/span&gt;&lt;/font&gt;&lt;/div&gt;" style="shape=cylinder3;whiteSpace=wrap;html=1;boundedLbl=1;backgroundOutline=1;size=15;fillColor=#fff2cc;strokeColor=#d6b656;" vertex="1" parent="1">
          <mxGeometry x="301.5" y="2263" width="60" height="80" as="geometry" />
        </mxCell>
        <mxCell id="zAv0b-ze88hExYa7rtgp-40" value="MongoDB&lt;div style=&quot;text-align: start;&quot;&gt;&lt;font face=&quot;Menlo, Ubuntu Mono, consolas, source-code-pro, monospace&quot; color=&quot;rgba(0, 0, 0, 0.85)&quot;&gt;&lt;span style=&quot;font-size: 14px; white-space: pre; background-color: rgb(245, 245, 245);&quot;&gt;slave&lt;/span&gt;&lt;/font&gt;&lt;/div&gt;" style="shape=cylinder3;whiteSpace=wrap;html=1;boundedLbl=1;backgroundOutline=1;size=15;fillColor=#fff2cc;strokeColor=#d6b656;" vertex="1" parent="1">
          <mxGeometry x="394" y="2363" width="60" height="80" as="geometry" />
        </mxCell>
        <mxCell id="zAv0b-ze88hExYa7rtgp-41" value="MongoDB&lt;div style=&quot;text-align: start;&quot;&gt;&lt;font face=&quot;Menlo, Ubuntu Mono, consolas, source-code-pro, monospace&quot; color=&quot;rgba(0, 0, 0, 0.85)&quot;&gt;&lt;span style=&quot;font-size: 14px; white-space: pre; background-color: rgb(245, 245, 245);&quot;&gt;slave&lt;/span&gt;&lt;/font&gt;&lt;/div&gt;" style="shape=cylinder3;whiteSpace=wrap;html=1;boundedLbl=1;backgroundOutline=1;size=15;fillColor=#fff2cc;strokeColor=#d6b656;" vertex="1" parent="1">
          <mxGeometry x="209" y="2363" width="60" height="80" as="geometry" />
        </mxCell>
        <mxCell id="zAv0b-ze88hExYa7rtgp-42" style="edgeStyle=orthogonalEdgeStyle;rounded=0;orthogonalLoop=1;jettySize=auto;html=1;exitX=0.145;exitY=1;exitDx=0;exitDy=-4.35;exitPerimeter=0;entryX=0.5;entryY=0;entryDx=0;entryDy=0;entryPerimeter=0;" edge="1" parent="1" source="zAv0b-ze88hExYa7rtgp-39" target="zAv0b-ze88hExYa7rtgp-41">
          <mxGeometry relative="1" as="geometry" />
        </mxCell>
        <mxCell id="zAv0b-ze88hExYa7rtgp-43" value="Replica" style="edgeLabel;html=1;align=center;verticalAlign=middle;resizable=0;points=[];" vertex="1" connectable="0" parent="zAv0b-ze88hExYa7rtgp-42">
          <mxGeometry x="-0.1791" relative="1" as="geometry">
            <mxPoint as="offset" />
          </mxGeometry>
        </mxCell>
        <mxCell id="zAv0b-ze88hExYa7rtgp-44" value="&lt;br&gt;&lt;br style=&quot;forced-color-adjust: none; color: rgb(0, 0, 0); font-family: Helvetica; font-size: 12px; font-style: normal; font-variant-ligatures: normal; font-variant-caps: normal; font-weight: 400; letter-spacing: normal; orphans: 2; text-align: center; text-indent: 0px; text-transform: none; widows: 2; word-spacing: 0px; -webkit-text-stroke-width: 0px; white-space: normal; background-color: rgb(251, 251, 251); text-decoration-thickness: initial; text-decoration-style: initial; text-decoration-color: initial;&quot;&gt;&lt;span style=&quot;forced-color-adjust: none; color: rgb(0, 0, 0); font-family: Helvetica; font-size: 12px; font-style: normal; font-variant-ligatures: normal; font-variant-caps: normal; font-weight: 400; letter-spacing: normal; orphans: 2; text-align: center; text-indent: 0px; text-transform: none; widows: 2; word-spacing: 0px; -webkit-text-stroke-width: 0px; white-space: normal; text-decoration-thickness: initial; text-decoration-style: initial; text-decoration-color: initial; background-color: rgb(251, 251, 251); float: none; display: inline !important;&quot;&gt;MongoDB&amp;nbsp;&lt;span style=&quot;background-color: rgb(245, 245, 245); color: rgba(0, 0, 0, 0.85); font-family: Menlo, &amp;quot;Ubuntu Mono&amp;quot;, consolas, source-code-pro, monospace; font-size: 14px; text-align: start; white-space: pre;&quot;&gt;shard2&lt;/span&gt;&lt;br&gt;&lt;/span&gt;&lt;br style=&quot;forced-color-adjust: none; color: rgb(0, 0, 0); font-family: Helvetica; font-size: 12px; font-style: normal; font-variant-ligatures: normal; font-variant-caps: normal; font-weight: 400; letter-spacing: normal; orphans: 2; text-align: center; text-indent: 0px; text-transform: none; widows: 2; word-spacing: 0px; -webkit-text-stroke-width: 0px; white-space: normal; background-color: rgb(251, 251, 251); text-decoration-thickness: initial; text-decoration-style: initial; text-decoration-color: initial;&quot;&gt;&lt;div&gt;&lt;br&gt;&lt;/div&gt;" style="text;html=1;align=center;verticalAlign=middle;whiteSpace=wrap;rounded=0;" vertex="1" parent="1">
          <mxGeometry x="733" y="2224" width="60" height="30" as="geometry" />
        </mxCell>
        <mxCell id="zAv0b-ze88hExYa7rtgp-45" style="edgeStyle=orthogonalEdgeStyle;rounded=0;orthogonalLoop=1;jettySize=auto;html=1;exitX=0.855;exitY=1;exitDx=0;exitDy=-4.35;exitPerimeter=0;" edge="1" parent="1" source="zAv0b-ze88hExYa7rtgp-47" target="zAv0b-ze88hExYa7rtgp-48">
          <mxGeometry relative="1" as="geometry" />
        </mxCell>
        <mxCell id="zAv0b-ze88hExYa7rtgp-46" value="Replica" style="edgeLabel;html=1;align=center;verticalAlign=middle;resizable=0;points=[];" vertex="1" connectable="0" parent="zAv0b-ze88hExYa7rtgp-45">
          <mxGeometry x="-0.1162" relative="1" as="geometry">
            <mxPoint as="offset" />
          </mxGeometry>
        </mxCell>
        <mxCell id="zAv0b-ze88hExYa7rtgp-47" value="MongoDB&lt;div style=&quot;text-align: start;&quot;&gt;&lt;font face=&quot;Menlo, Ubuntu Mono, consolas, source-code-pro, monospace&quot; color=&quot;rgba(0, 0, 0, 0.85)&quot;&gt;&lt;span style=&quot;font-size: 14px; white-space: pre; background-color: rgb(245, 245, 245);&quot;&gt;master&lt;/span&gt;&lt;/font&gt;&lt;/div&gt;" style="shape=cylinder3;whiteSpace=wrap;html=1;boundedLbl=1;backgroundOutline=1;size=15;fillColor=#fff2cc;strokeColor=#d6b656;" vertex="1" parent="1">
          <mxGeometry x="807.5" y="2264" width="60" height="80" as="geometry" />
        </mxCell>
        <mxCell id="zAv0b-ze88hExYa7rtgp-48" value="MongoDB&lt;div style=&quot;text-align: start;&quot;&gt;&lt;font face=&quot;Menlo, Ubuntu Mono, consolas, source-code-pro, monospace&quot; color=&quot;rgba(0, 0, 0, 0.85)&quot;&gt;&lt;span style=&quot;font-size: 14px; white-space: pre; background-color: rgb(245, 245, 245);&quot;&gt;slave&lt;/span&gt;&lt;/font&gt;&lt;/div&gt;" style="shape=cylinder3;whiteSpace=wrap;html=1;boundedLbl=1;backgroundOutline=1;size=15;fillColor=#fff2cc;strokeColor=#d6b656;" vertex="1" parent="1">
          <mxGeometry x="900" y="2364" width="60" height="80" as="geometry" />
        </mxCell>
        <mxCell id="zAv0b-ze88hExYa7rtgp-49" value="MongoDB&lt;div style=&quot;text-align: start;&quot;&gt;&lt;font face=&quot;Menlo, Ubuntu Mono, consolas, source-code-pro, monospace&quot; color=&quot;rgba(0, 0, 0, 0.85)&quot;&gt;&lt;span style=&quot;font-size: 14px; white-space: pre; background-color: rgb(245, 245, 245);&quot;&gt;slave&lt;/span&gt;&lt;/font&gt;&lt;/div&gt;" style="shape=cylinder3;whiteSpace=wrap;html=1;boundedLbl=1;backgroundOutline=1;size=15;fillColor=#fff2cc;strokeColor=#d6b656;" vertex="1" parent="1">
          <mxGeometry x="715" y="2364" width="60" height="80" as="geometry" />
        </mxCell>
        <mxCell id="zAv0b-ze88hExYa7rtgp-50" style="edgeStyle=orthogonalEdgeStyle;rounded=0;orthogonalLoop=1;jettySize=auto;html=1;exitX=0.145;exitY=1;exitDx=0;exitDy=-4.35;exitPerimeter=0;entryX=0.5;entryY=0;entryDx=0;entryDy=0;entryPerimeter=0;" edge="1" parent="1" source="zAv0b-ze88hExYa7rtgp-47" target="zAv0b-ze88hExYa7rtgp-49">
          <mxGeometry relative="1" as="geometry" />
        </mxCell>
        <mxCell id="zAv0b-ze88hExYa7rtgp-51" value="Replica" style="edgeLabel;html=1;align=center;verticalAlign=middle;resizable=0;points=[];" vertex="1" connectable="0" parent="zAv0b-ze88hExYa7rtgp-50">
          <mxGeometry x="-0.1372" y="1" relative="1" as="geometry">
            <mxPoint as="offset" />
          </mxGeometry>
        </mxCell>
        <mxCell id="zAv0b-ze88hExYa7rtgp-52" style="edgeStyle=orthogonalEdgeStyle;rounded=0;orthogonalLoop=1;jettySize=auto;html=1;exitX=0.5;exitY=1;exitDx=0;exitDy=0;entryX=0.466;entryY=0.002;entryDx=0;entryDy=0;entryPerimeter=0;" edge="1" parent="1" source="zAv0b-ze88hExYa7rtgp-34" target="zAv0b-ze88hExYa7rtgp-31">
          <mxGeometry relative="1" as="geometry" />
        </mxCell>
        <mxCell id="zAv0b-ze88hExYa7rtgp-53" style="edgeStyle=orthogonalEdgeStyle;rounded=0;orthogonalLoop=1;jettySize=auto;html=1;exitX=1;exitY=0.457;exitDx=0;exitDy=0;fillColor=#d80073;strokeColor=#A50040;exitPerimeter=0;entryX=0.5;entryY=1;entryDx=0;entryDy=0;" edge="1" parent="1" source="zAv0b-ze88hExYa7rtgp-29" target="zAv0b-ze88hExYa7rtgp-35">
          <mxGeometry relative="1" as="geometry">
            <mxPoint x="1033" y="2333" as="sourcePoint" />
            <mxPoint x="1663" y="2333" as="targetPoint" />
          </mxGeometry>
        </mxCell>
        <mxCell id="zAv0b-ze88hExYa7rtgp-54" style="edgeStyle=orthogonalEdgeStyle;rounded=0;orthogonalLoop=1;jettySize=auto;html=1;exitX=0.5;exitY=1;exitDx=0;exitDy=0;entryX=0.5;entryY=0;entryDx=0;entryDy=0;" edge="1" parent="1" source="zAv0b-ze88hExYa7rtgp-57" target="zAv0b-ze88hExYa7rtgp-34">
          <mxGeometry relative="1" as="geometry">
            <Array as="points">
              <mxPoint x="737" y="1913" />
              <mxPoint x="367" y="1913" />
            </Array>
          </mxGeometry>
        </mxCell>
        <mxCell id="zAv0b-ze88hExYa7rtgp-55" style="edgeStyle=orthogonalEdgeStyle;rounded=0;orthogonalLoop=1;jettySize=auto;html=1;exitX=0;exitY=0.5;exitDx=0;exitDy=0;entryX=0.5;entryY=1;entryDx=0;entryDy=0;fillColor=#60a917;strokeColor=#2D7600;dashed=1;" edge="1" parent="1" source="zAv0b-ze88hExYa7rtgp-57">
          <mxGeometry relative="1" as="geometry">
            <mxPoint x="495" y="1713" as="targetPoint" />
          </mxGeometry>
        </mxCell>
        <mxCell id="zAv0b-ze88hExYa7rtgp-56" value="registration" style="edgeLabel;html=1;align=center;verticalAlign=middle;resizable=0;points=[];" vertex="1" connectable="0" parent="zAv0b-ze88hExYa7rtgp-55">
          <mxGeometry x="-0.3425" y="-1" relative="1" as="geometry">
            <mxPoint as="offset" />
          </mxGeometry>
        </mxCell>
        <mxCell id="zAv0b-ze88hExYa7rtgp-57" value="pymongo-api" style="rounded=1;whiteSpace=wrap;html=1;" vertex="1" parent="1">
          <mxGeometry x="677" y="1793" width="120" height="60" as="geometry" />
        </mxCell>
        <mxCell id="zAv0b-ze88hExYa7rtgp-58" style="edgeStyle=orthogonalEdgeStyle;rounded=0;orthogonalLoop=1;jettySize=auto;html=1;exitX=0.5;exitY=1;exitDx=0;exitDy=0;entryX=0.5;entryY=0;entryDx=0;entryDy=0;" edge="1" parent="1" source="zAv0b-ze88hExYa7rtgp-60" target="zAv0b-ze88hExYa7rtgp-34">
          <mxGeometry relative="1" as="geometry">
            <Array as="points">
              <mxPoint x="977" y="1913" />
              <mxPoint x="367" y="1913" />
            </Array>
          </mxGeometry>
        </mxCell>
        <mxCell id="zAv0b-ze88hExYa7rtgp-59" value="db" style="edgeLabel;html=1;align=center;verticalAlign=middle;resizable=0;points=[];" vertex="1" connectable="0" parent="zAv0b-ze88hExYa7rtgp-58">
          <mxGeometry x="0.0686" relative="1" as="geometry">
            <mxPoint as="offset" />
          </mxGeometry>
        </mxCell>
        <mxCell id="zAv0b-ze88hExYa7rtgp-60" value="pymongo-api" style="rounded=1;whiteSpace=wrap;html=1;" vertex="1" parent="1">
          <mxGeometry x="917" y="1793" width="120" height="60" as="geometry" />
        </mxCell>
        <mxCell id="zAv0b-ze88hExYa7rtgp-61" style="edgeStyle=orthogonalEdgeStyle;rounded=0;orthogonalLoop=1;jettySize=auto;html=1;entryX=0.855;entryY=0;entryDx=0;entryDy=4.35;entryPerimeter=0;fillColor=#1ba1e2;strokeColor=#006EAF;" edge="1" parent="1">
          <mxGeometry relative="1" as="geometry">
            <mxPoint x="997" y="1853" as="sourcePoint" />
            <Array as="points">
              <mxPoint x="997" y="1883" />
              <mxPoint x="1358" y="1883" />
            </Array>
            <mxPoint x="1358.3000000000002" y="1937.35" as="targetPoint" />
          </mxGeometry>
        </mxCell>
        <mxCell id="zAv0b-ze88hExYa7rtgp-62" style="edgeStyle=orthogonalEdgeStyle;rounded=0;orthogonalLoop=1;jettySize=auto;html=1;entryX=0.145;entryY=0;entryDx=0;entryDy=4.35;entryPerimeter=0;fillColor=#1ba1e2;strokeColor=#006EAF;" edge="1" parent="1">
          <mxGeometry relative="1" as="geometry">
            <mxPoint x="757" y="1853" as="sourcePoint" />
            <Array as="points">
              <mxPoint x="757" y="1853" />
              <mxPoint x="757" y="1883" />
              <mxPoint x="1316" y="1883" />
            </Array>
            <mxPoint x="1315.6999999999998" y="1937.35" as="targetPoint" />
          </mxGeometry>
        </mxCell>
        <mxCell id="zAv0b-ze88hExYa7rtgp-63" value="cach" style="edgeLabel;html=1;align=center;verticalAlign=middle;resizable=0;points=[];" vertex="1" connectable="0" parent="zAv0b-ze88hExYa7rtgp-62">
          <mxGeometry x="0.3405" y="-2" relative="1" as="geometry">
            <mxPoint as="offset" />
          </mxGeometry>
        </mxCell>
        <mxCell id="zAv0b-ze88hExYa7rtgp-64" value="" style="rounded=0;whiteSpace=wrap;html=1;" vertex="1" parent="1">
          <mxGeometry x="1187" y="1939" width="500" height="180" as="geometry" />
        </mxCell>
        <mxCell id="zAv0b-ze88hExYa7rtgp-65" value="&lt;span style=&quot;color: rgba(0, 0, 0, 0.85); font-family: Menlo, &amp;quot;Ubuntu Mono&amp;quot;, consolas, source-code-pro, monospace; font-size: 14px; text-align: start; white-space: pre; background-color: rgb(245, 245, 245);&quot;&gt;redis01&lt;/span&gt;&lt;div&gt;&lt;span style=&quot;color: rgba(0, 0, 0, 0.85); font-family: Menlo, &amp;quot;Ubuntu Mono&amp;quot;, consolas, source-code-pro, monospace; font-size: 14px; text-align: start; white-space: pre; background-color: rgb(245, 245, 245);&quot;&gt;master&lt;/span&gt;&lt;/div&gt;" style="shape=cylinder3;whiteSpace=wrap;html=1;boundedLbl=1;backgroundOutline=1;size=15;fillColor=#b1ddf0;strokeColor=#10739e;" vertex="1" parent="1">
          <mxGeometry x="1197" y="1974" width="60" height="80" as="geometry" />
        </mxCell>
        <mxCell id="zAv0b-ze88hExYa7rtgp-66" value="&lt;span style=&quot;color: rgba(0, 0, 0, 0.85); font-family: Menlo, &amp;quot;Ubuntu Mono&amp;quot;, consolas, source-code-pro, monospace; font-size: 14px; text-align: start; white-space: pre; background-color: rgb(245, 245, 245);&quot;&gt;redis02&lt;/span&gt;&lt;div&gt;&lt;span style=&quot;color: rgba(0, 0, 0, 0.85); font-family: Menlo, &amp;quot;Ubuntu Mono&amp;quot;, consolas, source-code-pro, monospace; font-size: 14px; text-align: start; white-space: pre; background-color: rgb(245, 245, 245);&quot;&gt;master&lt;/span&gt;&lt;/div&gt;" style="shape=cylinder3;whiteSpace=wrap;html=1;boundedLbl=1;backgroundOutline=1;size=15;fillColor=#b1ddf0;strokeColor=#10739e;" vertex="1" parent="1">
          <mxGeometry x="1351" y="1974" width="60" height="80" as="geometry" />
        </mxCell>
        <mxCell id="zAv0b-ze88hExYa7rtgp-67" value="&lt;span style=&quot;color: rgba(0, 0, 0, 0.85); font-family: Menlo, &amp;quot;Ubuntu Mono&amp;quot;, consolas, source-code-pro, monospace; font-size: 14px; text-align: start; white-space: pre; background-color: rgb(245, 245, 245);&quot;&gt;redis01&lt;/span&gt;&lt;div&gt;&lt;span style=&quot;color: rgba(0, 0, 0, 0.85); font-family: Menlo, &amp;quot;Ubuntu Mono&amp;quot;, consolas, source-code-pro, monospace; font-size: 14px; text-align: start; white-space: pre; background-color: rgb(245, 245, 245);&quot;&gt;slave&lt;/span&gt;&lt;/div&gt;" style="shape=cylinder3;whiteSpace=wrap;html=1;boundedLbl=1;backgroundOutline=1;size=15;fillColor=#f5f5f5;strokeColor=#666666;fontColor=#333333;" vertex="1" parent="1">
          <mxGeometry x="1277" y="1974" width="60" height="80" as="geometry" />
        </mxCell>
        <mxCell id="zAv0b-ze88hExYa7rtgp-68" value="&lt;span style=&quot;color: rgba(0, 0, 0, 0.85); font-family: Menlo, &amp;quot;Ubuntu Mono&amp;quot;, consolas, source-code-pro, monospace; font-size: 14px; text-align: start; white-space: pre; background-color: rgb(245, 245, 245);&quot;&gt;redis02&lt;/span&gt;&lt;div&gt;&lt;span style=&quot;color: rgba(0, 0, 0, 0.85); font-family: Menlo, &amp;quot;Ubuntu Mono&amp;quot;, consolas, source-code-pro, monospace; font-size: 14px; text-align: start; white-space: pre; background-color: rgb(245, 245, 245);&quot;&gt;slave&lt;/span&gt;&lt;/div&gt;" style="shape=cylinder3;whiteSpace=wrap;html=1;boundedLbl=1;backgroundOutline=1;size=15;fillColor=#f5f5f5;strokeColor=#666666;fontColor=#333333;" vertex="1" parent="1">
          <mxGeometry x="1437.5" y="1974" width="60" height="80" as="geometry" />
        </mxCell>
        <mxCell id="zAv0b-ze88hExYa7rtgp-69" value="&lt;span style=&quot;color: rgba(0, 0, 0, 0.85); font-family: Menlo, &amp;quot;Ubuntu Mono&amp;quot;, consolas, source-code-pro, monospace; font-size: 14px; text-align: start; white-space: pre; background-color: rgb(245, 245, 245);&quot;&gt;redis03&lt;/span&gt;&lt;div&gt;&lt;span style=&quot;color: rgba(0, 0, 0, 0.85); font-family: Menlo, &amp;quot;Ubuntu Mono&amp;quot;, consolas, source-code-pro, monospace; font-size: 14px; text-align: start; white-space: pre; background-color: rgb(245, 245, 245);&quot;&gt;slave&lt;/span&gt;&lt;/div&gt;" style="shape=cylinder3;whiteSpace=wrap;html=1;boundedLbl=1;backgroundOutline=1;size=15;fillColor=#f5f5f5;strokeColor=#666666;fontColor=#333333;" vertex="1" parent="1">
          <mxGeometry x="1602" y="1974" width="60" height="80" as="geometry" />
        </mxCell>
        <mxCell id="zAv0b-ze88hExYa7rtgp-70" value="&lt;span style=&quot;color: rgba(0, 0, 0, 0.85); font-family: Menlo, &amp;quot;Ubuntu Mono&amp;quot;, consolas, source-code-pro, monospace; font-size: 14px; text-align: start; white-space: pre; background-color: rgb(245, 245, 245);&quot;&gt;redis03&lt;/span&gt;&lt;div&gt;&lt;span style=&quot;color: rgba(0, 0, 0, 0.85); font-family: Menlo, &amp;quot;Ubuntu Mono&amp;quot;, consolas, source-code-pro, monospace; font-size: 14px; text-align: start; white-space: pre; background-color: rgb(245, 245, 245);&quot;&gt;master&lt;/span&gt;&lt;/div&gt;" style="shape=cylinder3;whiteSpace=wrap;html=1;boundedLbl=1;backgroundOutline=1;size=15;fillColor=#b1ddf0;strokeColor=#10739e;" vertex="1" parent="1">
          <mxGeometry x="1517" y="1974" width="60" height="80" as="geometry" />
        </mxCell>
        <mxCell id="zAv0b-ze88hExYa7rtgp-71" style="edgeStyle=orthogonalEdgeStyle;rounded=0;orthogonalLoop=1;jettySize=auto;html=1;exitX=0.5;exitY=1;exitDx=0;exitDy=0;exitPerimeter=0;entryX=0.5;entryY=1;entryDx=0;entryDy=0;entryPerimeter=0;startArrow=classic;startFill=1;" edge="1" parent="1" source="zAv0b-ze88hExYa7rtgp-65" target="zAv0b-ze88hExYa7rtgp-67">
          <mxGeometry relative="1" as="geometry" />
        </mxCell>
        <mxCell id="zAv0b-ze88hExYa7rtgp-72" value="Replica" style="edgeLabel;html=1;align=center;verticalAlign=middle;resizable=0;points=[];" vertex="1" connectable="0" parent="zAv0b-ze88hExYa7rtgp-71">
          <mxGeometry x="-0.1222" y="-1" relative="1" as="geometry">
            <mxPoint as="offset" />
          </mxGeometry>
        </mxCell>
        <mxCell id="zAv0b-ze88hExYa7rtgp-73" style="edgeStyle=orthogonalEdgeStyle;rounded=0;orthogonalLoop=1;jettySize=auto;html=1;exitX=0.5;exitY=1;exitDx=0;exitDy=0;exitPerimeter=0;entryX=0.5;entryY=1;entryDx=0;entryDy=0;entryPerimeter=0;startArrow=classic;startFill=1;" edge="1" parent="1" source="zAv0b-ze88hExYa7rtgp-66" target="zAv0b-ze88hExYa7rtgp-68">
          <mxGeometry relative="1" as="geometry" />
        </mxCell>
        <mxCell id="zAv0b-ze88hExYa7rtgp-74" value="Replica" style="edgeLabel;html=1;align=center;verticalAlign=middle;resizable=0;points=[];" vertex="1" connectable="0" parent="zAv0b-ze88hExYa7rtgp-73">
          <mxGeometry x="-0.3412" y="3" relative="1" as="geometry">
            <mxPoint as="offset" />
          </mxGeometry>
        </mxCell>
        <mxCell id="zAv0b-ze88hExYa7rtgp-75" style="edgeStyle=orthogonalEdgeStyle;rounded=0;orthogonalLoop=1;jettySize=auto;html=1;exitX=0.5;exitY=1;exitDx=0;exitDy=0;exitPerimeter=0;entryX=0.5;entryY=1;entryDx=0;entryDy=0;entryPerimeter=0;startArrow=classic;startFill=1;" edge="1" parent="1" source="zAv0b-ze88hExYa7rtgp-70" target="zAv0b-ze88hExYa7rtgp-69">
          <mxGeometry relative="1" as="geometry" />
        </mxCell>
        <mxCell id="zAv0b-ze88hExYa7rtgp-76" value="Replica" style="edgeLabel;html=1;align=center;verticalAlign=middle;resizable=0;points=[];" vertex="1" connectable="0" parent="zAv0b-ze88hExYa7rtgp-75">
          <mxGeometry x="-0.3493" y="-1" relative="1" as="geometry">
            <mxPoint as="offset" />
          </mxGeometry>
        </mxCell>
        <mxCell id="zAv0b-ze88hExYa7rtgp-77" value="Redis" style="text;html=1;align=center;verticalAlign=middle;whiteSpace=wrap;rounded=0;" vertex="1" parent="1">
          <mxGeometry x="1197" y="1944" width="60" height="30" as="geometry" />
        </mxCell>
        <mxCell id="zAv0b-ze88hExYa7rtgp-78" style="edgeStyle=orthogonalEdgeStyle;rounded=0;orthogonalLoop=1;jettySize=auto;html=1;exitX=0.5;exitY=1;exitDx=0;exitDy=0;entryX=0.5;entryY=0;entryDx=0;entryDy=0;fillColor=#1ba1e2;strokeColor=#006EAF;" edge="1" parent="1" source="zAv0b-ze88hExYa7rtgp-79" target="zAv0b-ze88hExYa7rtgp-64">
          <mxGeometry relative="1" as="geometry">
            <Array as="points">
              <mxPoint x="1187" y="1883" />
              <mxPoint x="1437" y="1883" />
            </Array>
          </mxGeometry>
        </mxCell>
        <mxCell id="zAv0b-ze88hExYa7rtgp-79" value="pymongo-api" style="rounded=1;whiteSpace=wrap;html=1;" vertex="1" parent="1">
          <mxGeometry x="1127" y="1793" width="120" height="60" as="geometry" />
        </mxCell>
      </root>
    </mxGraphModel>
  </diagram>
</mxfile>
